<?xml version="1.0" encoding="UTF-8"?>
<svg id="Camada_1" data-name="Camada 1" xmlns="http://www.w3.org/2000/svg" viewBox="0 0 298.99 298.99">
  <defs>
    <style>
      .cls-1 {
        fill: #fff;
      }

      .cls-2 {
        font-family: Geometric415BT-BlackA, 'Geometr415 Blk BT';
        font-size: 21.1px;
        font-weight: 800;
      }

      .cls-2, .cls-3 {
        fill: #7a5813;
      }

      .cls-4 {
        fill: #d1af6e;
      }
    </style>
  </defs>
  <path class="cls-4" d="M298.99,149.5c0,11.42-1.28,22.53-3.7,33.21h0s-137.58,115.73-137.58,115.73c-.02.11-.05.22-.07.33-.11,0-.23.01-.34.02-2.58.13-5.18.2-7.79.2C66.93,298.99,0,232.06,0,149.5S66.93,0,149.5,0s149.49,66.93,149.49,149.5Z"/>
  <path class="cls-3" d="M295.28,182.71h0s-137.58,115.73-137.58,115.73c14.64-63.85,70.19-112.11,137.58-115.73Z"/>
  <path class="cls-1" d="M246.1,58.5h-75.22v-13.52h-38.9v13.52H52.89v29.87h79.09v92.55c0,19.5-37.8,21.3-38.9-2.95,0-.28-39.65.09-39.65.37.31,5.11,2.08,24.09,17.7,38.45,20.01,18.39,45.95,17.08,52.03,15.98,6.99-1.26,27.52-8.14,39.18-25.19,7.19-10.52,8.37-21.17,8.54-26.66v-92.55h75.22v-29.87Z"/>
  <polygon class="cls-1" points="126.11 116.71 126.11 94.34 86.92 94.34 52.89 94.34 52.89 116.71 52.89 122.12 52.89 144.49 52.89 149.9 52.89 172.26 86.92 172.26 126.11 172.26 126.11 149.9 86.92 149.9 86.92 144.49 126.11 144.49 126.11 122.12 86.92 122.12 86.92 116.71 126.11 116.71"/>
  <polygon class="cls-1" points="246.1 116.7 246.1 94.33 208.87 94.33 176.56 94.33 176.56 116.7 176.56 122.11 176.56 144.47 176.56 149.88 176.56 172.25 208.87 172.25 246.1 172.25 246.1 149.88 208.87 149.88 208.87 144.47 208.87 122.11 208.87 116.7 246.1 116.7"/>
  <text class="cls-2" transform="translate(132.94 243.81) rotate(-21.81)"><tspan x="0" y="0">V</tspan></text>
  <text class="cls-2" transform="translate(144.87 238.99) rotate(-31.29)"><tspan x="0" y="0">e</tspan></text>
  <text class="cls-2" transform="translate(155.58 232.17) rotate(-42.15)"><tspan x="0" y="0">r</tspan></text>
  <text class="cls-2" transform="translate(163.32 225.12) rotate(-55.68)"><tspan x="0" y="0">g</tspan></text>
  <text class="cls-2" transform="translate(171.02 213.06) rotate(-71.85)"><tspan x="0" y="0">e</tspan></text>
  <text class="cls-2" transform="translate(174.56 200.93) rotate(-82.3)"><tspan x="0" y="0">l</tspan></text>
</svg>